HIERARCHY
ROOT Hips
{
	OFFSET -0.001795 -0.223333 0.028219
	CHANNELS 6 Xposition Yposition Zposition Zrotation Yrotation Xrotation 
	JOINT LeftUpLeg
	{
		OFFSET 0.069520 -0.091406 -0.006815
		CHANNELS 3 Zrotation Yrotation Xrotation
		JOINT LeftLeg
		{
			OFFSET 0.034277 -0.375199 -0.004496
			CHANNELS 3 Zrotation Yrotation Xrotation
			JOINT LeftFoot
			{
				OFFSET -0.013596 -0.397961 -0.043693
				CHANNELS 3 Zrotation Yrotation Xrotation
				JOINT LeftToe
				{
					OFFSET 0.026358 -0.055791 0.119288
					CHANNELS 3 Zrotation Yrotation Xrotation
					End Site
					{
						OFFSET 0.000000 0.000000 0.000000
					}
				}
			}
		}
	}
	JOINT RightUpLeg
	{
		OFFSET -0.067670 -0.090522 -0.004320
		CHANNELS 3 Zrotation Yrotation Xrotation
		JOINT RightLeg
		{
			OFFSET -0.038290 -0.382569 -0.008850
			CHANNELS 3 Zrotation Yrotation Xrotation
			JOINT RightFoot
			{
				OFFSET 0.015774 -0.398415 -0.042312
				CHANNELS 3 Zrotation Yrotation Xrotation
				JOINT RightToe
				{
					OFFSET -0.025372 -0.048144 0.123348
					CHANNELS 3 Zrotation Yrotation Xrotation
					End Site
					{
						OFFSET 0.000000 0.000000 0.000000
					}
				}
			}
		}
	}
	JOINT Spine
	{
		OFFSET -0.002533 0.108963 -0.026696
		CHANNELS 3 Zrotation Yrotation Xrotation
		JOINT Spine1
		{
			OFFSET 0.005487 0.135180 0.001092
			CHANNELS 3 Zrotation Yrotation Xrotation
			JOINT Spine2
			{
				OFFSET 0.001457 0.052922 0.025425
				CHANNELS 3 Zrotation Yrotation Xrotation
				JOINT Neck
				{
					OFFSET -0.002778 0.213870 -0.042857
					CHANNELS 3 Zrotation Yrotation Xrotation
					JOINT Head
					{
						OFFSET 0.005152 0.064970 0.051349
						CHANNELS 3 Zrotation Yrotation Xrotation
						End Site
						{
							OFFSET 0.000000 0.000000 0.000000
						}
					}
				}
				JOINT LeftShoulder
				{
					OFFSET 0.078845 0.121749 -0.034090
					CHANNELS 3 Zrotation Yrotation Xrotation
					JOINT LeftArm
					{
						OFFSET 0.090977 0.030469 -0.008868
						CHANNELS 3 Zrotation Yrotation Xrotation
						JOINT LeftForeArm
						{
							OFFSET 0.259612 -0.012772 -0.027456
							CHANNELS 3 Zrotation Yrotation Xrotation
							JOINT LeftHand
							{
								OFFSET 0.249234 0.008986 -0.001171
								CHANNELS 3 Zrotation Yrotation Xrotation
								End Site
								{
									OFFSET 0.000000 0.000000 0.000000
								}
							}
						}
					}
				}
				JOINT RightShoulder
				{
					OFFSET -0.081759 0.118833 -0.038615
					CHANNELS 3 Zrotation Yrotation Xrotation
					JOINT RightArm
					{
						OFFSET -0.096012 0.032551 -0.009143
						CHANNELS 3 Zrotation Yrotation Xrotation
						JOINT RightForeArm
						{
							OFFSET -0.253742 -0.013329 -0.021401
							CHANNELS 3 Zrotation Yrotation Xrotation
							JOINT RightHand
							{
								OFFSET -0.255298 0.007772 -0.005559
								CHANNELS 3 Zrotation Yrotation Xrotation
								End Site
								{
									OFFSET 0.000000 0.000000 0.000000
								}
							}
						}
					}
				}
			}
		}
	}
}
MOTION
Frames: 16
Frame Time: 0.050000
-1.015020 0.930968 3.909457 179.526417 53.371282 175.431923 -1.801445 -1.144643 -11.431597 -17.079825 -11.833259 29.075263 29.497453 11.260952 34.504426 0.000000 0.000000 0.000000 5.089851 -5.539109 13.689067 -3.229670 -1.279107 -1.209017 10.993258 -8.652126 -1.737416 0.000000 0.000000 0.000000 -6.104300 -2.968424 16.268810 -6.134357 -6.917316 0.763361 7.591287 19.774252 0.366032 0.501656 2.401359 -15.637416 0.000000 0.000000 0.000000 -22.010592 -5.458006 -37.649968 -40.701197 27.822138 -8.897705 -19.126326 -20.725360 0.785957 0.000000 0.000000 0.000000 21.949399 -3.201733 23.480065 49.027627 32.625116 6.356078 -5.153981 27.292141 -1.074528 0.000000 0.000000 0.000000 
-1.027224 0.930890 3.915056 -179.518395 52.994332 176.287510 -3.780159 -0.436036 -5.913426 -9.436802 -9.245648 24.895156 28.445881 8.913827 20.592487 0.000000 0.000000 0.000000 6.117949 -5.014649 12.924268 -4.281979 -0.595666 -2.654398 9.955124 -9.168139 0.664780 0.000000 0.000000 0.000000 -4.497079 -2.457198 14.995880 -7.085190 -7.566185 1.577252 7.605291 18.154812 1.150693 2.160320 2.548056 -15.666963 0.000000 0.000000 0.000000 -21.412905 -5.931176 -36.841044 -41.426551 26.889959 -8.867845 -18.700739 -20.283537 0.599171 0.000000 0.000000 0.000000 22.924865 -3.256931 23.946639 48.987199 32.601743 6.056385 -5.837262 25.867306 -1.334752 0.000000 0.000000 0.000000 
-1.036293 0.930901 3.917137 -178.694070 51.674159 177.576409 -5.036749 -0.559573 -1.574778 -2.072700 -5.175141 16.550198 26.511978 3.392486 9.854152 0.000000 0.000000 0.000000 6.921976 -3.816251 10.728986 -4.079661 -1.100690 -0.820642 9.434725 -10.845004 0.026121 0.000000 0.000000 0.000000 -3.427604 -1.879861 13.430167 -6.922161 -8.169849 1.647317 7.312098 16.542685 1.998022 2.666664 2.609482 -15.786296 0.000000 0.000000 0.000000 -21.215379 -8.173812 -36.616564 -41.000986 26.759818 -8.336047 -17.997531 -19.699844 0.535623 0.000000 0.000000 0.000000 23.993106 -4.795296 23.881821 48.564226 31.293345 4.994008 -4.962639 25.855326 -1.233362 0.000000 0.000000 0.000000 
-1.042817 0.930287 3.916569 -178.036675 49.762533 178.757626 -5.749020 -1.147556 1.860881 1.355416 -2.491160 8.839040 26.365821 -0.122771 6.351774 0.000000 0.000000 0.000000 7.973506 -2.828064 8.778264 -4.543624 -1.472409 0.896049 8.717303 -13.102685 -0.597720 0.000000 0.000000 0.000000 -3.094485 -1.458175 11.988161 -6.165458 -8.707026 1.599566 7.158019 14.784825 2.349187 4.137107 2.893174 -16.828903 0.000000 0.000000 0.000000 -20.679030 -9.354169 -36.953154 -40.563387 27.778850 -8.471520 -19.388136 -20.241632 0.728194 0.000000 0.000000 0.000000 24.521502 -4.703674 25.065707 47.990242 31.139071 4.462847 -5.363218 24.551427 -1.438945 0.000000 0.000000 0.000000 
-1.047215 0.930511 3.914027 -177.688946 48.021986 179.013523 -6.001890 -1.723856 3.851090 2.313187 -1.755597 5.139774 25.646927 -1.685066 5.462202 0.000000 0.000000 0.000000 7.725436 -2.655963 8.123683 -3.647647 -2.347375 1.948508 8.626232 -14.016801 -0.707957 0.000000 0.000000 0.000000 -3.110537 -1.357346 11.528108 -6.079231 -9.529665 2.170564 7.214235 14.896218 2.058750 4.045995 2.468256 -16.451862 0.000000 0.000000 0.000000 -19.600491 -9.816958 -36.725131 -40.971219 28.024242 -8.958351 -20.577675 -19.950880 0.760465 0.000000 0.000000 0.000000 24.280709 -4.553639 25.634670 48.385857 30.957944 4.624273 -5.627163 23.658943 -1.574448 0.000000 0.000000 0.000000 
-1.050385 0.929964 3.909943 -177.694092 46.198174 178.723414 -6.307638 -2.262512 5.382436 2.650659 -1.554154 3.011443 25.033346 -2.768007 4.788685 0.000000 0.000000 0.000000 7.273138 -2.550300 7.488674 -3.022475 -3.545522 3.792405 8.893696 -14.806372 -1.346700 0.000000 0.000000 0.000000 -3.130443 -1.407486 11.647114 -6.387189 -10.046675 2.243506 7.451451 15.012209 2.321560 3.941408 2.490110 -16.967548 0.000000 0.000000 0.000000 -18.396760 -10.618157 -36.721560 -41.120760 28.564241 -9.450101 -21.900302 -20.536761 0.865993 0.000000 0.000000 0.000000 23.717330 -4.022568 26.507758 48.261663 31.011196 4.843015 -5.447835 23.073066 -1.653286 0.000000 0.000000 0.000000 
-1.052664 0.929102 3.904227 -177.970042 45.136273 178.150904 -6.618549 -2.494206 6.053701 2.296010 -1.640394 2.792741 24.696952 -3.154206 4.279754 0.000000 0.000000 0.000000 6.080988 -2.732880 7.165800 -2.079808 -5.031093 5.536280 9.713855 -14.356292 -2.071373 0.000000 0.000000 0.000000 -3.369926 -1.582439 12.226989 -6.574957 -10.301972 2.173733 7.745573 15.612542 2.573791 2.669481 2.167510 -16.613718 0.000000 0.000000 0.000000 -18.332073 -11.102064 -37.558941 -40.743594 29.456573 -9.497318 -22.637786 -20.606871 0.976695 0.000000 0.000000 0.000000 23.670029 -3.648946 27.474970 47.610697 31.841363 4.946019 -5.266602 22.574543 -1.691041 0.000000 0.000000 0.000000 
-1.054223 0.927581 3.897266 -177.913968 44.319899 177.814400 -6.905870 -2.743087 6.680526 2.207071 -1.671301 2.890637 24.839993 -3.349560 3.606771 0.000000 0.000000 0.000000 4.978739 -2.679342 6.030252 -1.489293 -7.679399 9.051150 10.637597 -12.760352 -2.551633 0.000000 0.000000 0.000000 -3.461081 -1.745371 12.677889 -7.493374 -10.781943 2.661753 8.486996 16.794341 2.217236 2.999746 2.219923 -17.166942 0.000000 0.000000 0.000000 -18.234694 -11.846857 -38.011294 -40.597965 30.507336 -9.703010 -22.937973 -21.069150 1.012584 0.000000 0.000000 0.000000 23.862052 -3.044688 28.615111 46.390587 32.712413 4.791691 -5.555814 21.906112 -1.757451 0.000000 0.000000 0.000000 
-1.054426 0.925732 3.889196 -178.486787 43.672167 176.808844 -7.292267 -3.240977 7.999718 1.203671 -1.879589 2.386714 24.767202 -3.015776 3.345931 0.000000 0.000000 0.000000 3.619232 -2.589037 3.862049 -2.910521 -12.043537 15.365887 11.689214 -9.336846 -2.096934 0.000000 0.000000 0.000000 -3.791289 -2.022729 13.504983 -7.293782 -10.822499 2.441844 8.026638 17.170027 2.549768 3.135880 2.123792 -17.601215 0.000000 0.000000 0.000000 -18.352829 -12.167726 -38.400925 -40.221777 30.677266 -9.491940 -22.670149 -21.316332 1.042538 0.000000 0.000000 0.000000 24.064888 -2.663692 29.601670 44.392657 33.864240 4.494420 -5.202056 22.022710 -1.769259 0.000000 0.000000 0.000000 
-1.052614 0.924177 3.880186 -178.239812 42.363809 175.682864 -6.812703 -4.561659 10.439005 -0.398825 -2.274583 1.509979 24.887287 -2.497442 3.226939 0.000000 0.000000 0.000000 3.326836 -2.383434 1.451502 -7.824048 -17.985023 24.192767 12.437724 -3.942296 2.146942 0.000000 0.000000 0.000000 -4.285209 -2.693713 15.152612 -6.534365 -9.979931 1.004813 8.477396 16.590647 4.722083 3.230863 2.569614 -19.052388 0.000000 0.000000 0.000000 -18.822450 -13.540269 -40.743885 -39.567677 32.012838 -8.981747 -20.944193 -21.255159 0.892224 0.000000 0.000000 0.000000 23.824515 -2.049121 31.106905 42.620811 35.829971 4.799808 -6.817411 21.457296 -2.077289 0.000000 0.000000 0.000000 
-1.047683 0.923978 3.869460 -177.950234 41.629893 175.107315 -7.277004 -6.106469 13.370119 -0.355540 -2.311246 -0.746924 24.580202 -1.702120 4.027948 0.000000 0.000000 0.000000 1.782523 -3.095729 -4.565918 -21.574609 -27.346434 41.907695 15.918420 8.119411 15.273118 0.000000 0.000000 0.000000 -4.790150 -3.000305 15.809743 -5.688974 -9.913974 0.755789 8.270518 15.827749 5.296081 3.507045 2.471334 -18.897105 0.000000 0.000000 0.000000 -19.388114 -13.082129 -41.801649 -37.283555 32.137103 -7.943952 -21.386677 -20.618785 1.158165 0.000000 0.000000 0.000000 23.758961 -2.084240 31.048713 41.975922 36.239884 4.689965 -6.849235 23.125206 -2.130984 0.000000 0.000000 0.000000 
-1.039359 0.924459 3.856387 -177.190104 41.669239 174.735902 -7.812187 -7.544115 15.916690 0.094874 -2.127201 -1.517786 24.683235 -0.467100 5.090659 0.000000 0.000000 0.000000 1.481822 -4.748755 -11.162485 -35.096703 -29.504711 55.371795 10.041418 9.682607 29.371867 0.000000 0.000000 0.000000 -5.067227 -3.727382 17.324415 -4.416996 -8.462730 -0.810661 8.182335 14.118389 6.443895 3.389611 2.775856 -18.980958 0.000000 0.000000 0.000000 -19.823476 -13.992292 -41.900966 -36.840624 32.571052 -7.620033 -20.176731 -20.421106 1.076588 0.000000 0.000000 0.000000 22.904403 -2.299049 29.698263 43.352447 36.024502 5.477015 -7.371893 24.720900 -2.162596 0.000000 0.000000 0.000000 
-1.027895 0.924148 3.841114 -176.352220 41.242365 174.996801 -8.548665 -9.396168 18.937822 0.983010 -2.005394 -3.636682 24.843465 0.681550 6.403004 0.000000 0.000000 0.000000 2.143965 -6.511070 -16.038990 -20.663739 -26.396985 42.960785 -27.999415 -17.615103 61.724564 0.000000 0.000000 0.000000 -4.444064 -4.124100 18.178685 -3.582359 -8.300333 -1.102507 7.633665 12.510249 6.087235 2.449451 3.037354 -18.528340 0.000000 0.000000 0.000000 -20.622994 -13.300542 -41.302246 -35.957080 31.137200 -6.890181 -19.088135 -19.065836 0.999860 0.000000 0.000000 0.000000 22.649561 -2.077789 28.570762 44.809518 35.893575 6.081967 -8.529453 25.177009 -2.297094 0.000000 0.000000 0.000000 
-1.013597 0.922040 3.823367 -175.697082 41.185532 174.872897 -9.505303 -11.217760 21.919806 1.365402 -1.906813 -4.634802 25.687298 2.190220 7.605896 0.000000 0.000000 0.000000 3.715787 -7.333846 -19.170137 -3.888736 -15.971001 22.483103 -85.776673 -42.534602 105.556704 0.000000 0.000000 0.000000 -4.066122 -4.368606 18.697557 -3.290646 -8.512101 -0.817194 7.715463 12.199476 5.935512 3.005167 3.243032 -18.669122 0.000000 0.000000 0.000000 -21.207605 -13.539626 -40.818742 -35.387969 30.701986 -6.437593 -18.818228 -19.112905 1.085034 0.000000 0.000000 0.000000 22.985914 -1.819479 28.547577 44.060724 35.484546 5.457380 -9.356162 26.907598 -2.484844 0.000000 0.000000 0.000000 
-0.996609 0.917974 3.803196 -175.896046 41.688549 174.639964 -11.737916 -12.609734 24.791234 2.441882 -1.680028 -5.675202 26.632071 3.968506 9.106931 0.000000 0.000000 0.000000 5.379580 -6.999947 -20.321645 0.685032 -7.234560 8.667328 -78.890912 -39.625685 98.806080 0.000000 0.000000 0.000000 -4.215678 -4.322145 18.654609 -3.172084 -9.209896 0.189489 7.733911 12.465371 4.954613 2.411340 3.665956 -18.988007 0.000000 0.000000 0.000000 -22.258814 -13.124020 -40.297297 -34.677845 29.771964 -5.852422 -18.572284 -19.409384 1.233047 0.000000 0.000000 0.000000 23.021309 -1.992011 27.440256 44.509906 35.068130 5.468503 -9.746099 27.260351 -2.443068 0.000000 0.000000 0.000000 
-0.976777 0.913298 3.781002 -176.097557 40.944160 174.323927 -13.111713 -14.094930 27.192727 2.423171 -1.564896 -5.507154 27.100443 4.868534 9.774148 0.000000 0.000000 0.000000 6.656098 -7.167952 -21.496972 -0.937358 -5.180846 6.783714 -30.683158 -15.358300 53.822330 0.000000 0.000000 0.000000 -3.746992 -4.302700 18.573601 -3.761048 -10.070651 1.125948 8.212270 11.716426 3.916426 1.587849 3.924864 -18.712572 0.000000 0.000000 0.000000 -22.553864 -12.463884 -40.049255 -34.633374 29.388393 -5.785886 -19.009737 -19.848017 1.380752 0.000000 0.000000 0.000000 23.047800 -1.778277 26.910429 44.640146 33.394574 4.709467 -10.206223 28.535362 -2.533870 0.000000 0.000000 0.000000 
